<svg xmlns="http://www.w3.org/2000/svg" viewBox="0 0 148.5 86.36"><defs><style>.cls-1{fill:#073349;}.cls-2{fill:#fff;}</style></defs><title>Recurso 1</title><g id="Capa_2" data-name="Capa 2"><g id="Layer_1" data-name="Layer 1"><path class="cls-1" d="M85.23,54.36c.54.43,1.31.85,1.86.44a1.83,1.83,0,0,0,.32-.36l5.25-7.32c-3.49.26-7.49.22-10.88,1.15-1.85.52-1,1.48-.07,2.61A25.72,25.72,0,0,0,85.23,54.36Z"/><path class="cls-1" d="M47.33,60.49a35,35,0,0,0,6.12,7.4C55.69,66.33,57.89,64.71,60,63A23.53,23.53,0,0,1,55,59.88a11.78,11.78,0,0,1-3.9-8.25,39.06,39.06,0,0,0-4.32-.22c-1.73,0-2,0-1.84,1.82A17.41,17.41,0,0,0,47.33,60.49Z"/><path class="cls-1" d="M93.41,23.75a3.91,3.91,0,0,1,2.64-.59,4.08,4.08,0,0,1,1.52.78,16.05,16.05,0,0,1,5.9,8.28,3.59,3.59,0,0,1-2.71-.6c-3-1.55-5.9-2.16-9.05-3.12-.93-.29-2.34-1-1.76-2.17S92.47,24.27,93.41,23.75Z"/><path class="cls-1" d="M64.8,13.15a6.47,6.47,0,0,1,3.8-1,.92.92,0,0,1,.54.24.92.92,0,0,1,.17.52,60.1,60.1,0,0,1-.1,6.29,17.65,17.65,0,0,0,1.27,6.46c-.09-.23-7.34.71-8.06.76-2.41.17-5.57.82-7.92.17-5.76-1.59,1.62-7.47,3.62-9.11A37.64,37.64,0,0,1,64.8,13.15Z"/><path class="cls-1" d="M125.69,34.09c3.9-3.86,9.44-5.66,14.9-6.17a3.48,3.48,0,0,1,2.68.52,79,79,0,0,0-9,8.21,6.07,6.07,0,0,0-1.56,2.3,8.45,8.45,0,0,0,1.19,5.83c2.16,2.88,5.79,10,5.19,10-2.2.13-4.29-.91-6.23-1.95-3.08-1.66-6.22-3.53-8.12-6.47a11.3,11.3,0,0,1-1.56-3.74A8.66,8.66,0,0,1,125.69,34.09Z"/><path class="cls-1" d="M118.84,42.58c1.48-.37,7.17-1.1,7.45-2.6.53-2.87-11.59-6.43-17.86-8.62C102.91,29.42,97,28.3,91.3,27.08,80.16,24.71,69,24.34,57.64,25,42,25.83,25.8,27.36,12,34.85c2.92.89,7.29.86,9.55,2a24.54,24.54,0,0,1-3.6,2.56,16,16,0,0,1-4.35,2.16c.05-.08,12.19,8.72,19.22,10.39a78.22,78.22,0,0,0,20.52,2.09A161.63,161.63,0,0,0,70.93,53c5.66-.74,11.23-2,16.8-3.21C99.1,47.24,107.32,45.48,118.84,42.58Z"/><path class="cls-1" d="M46.36,23.06l.16.13a2.56,2.56,0,0,0,2.44.65,2.59,2.59,0,0,0,1.5-1.15A2.54,2.54,0,0,0,49,19L48.75,19a2.46,2.46,0,0,0-2.39,4.11Z"/><path class="cls-1" d="M53.56,16.14a1.77,1.77,0,1,0-1.76-1.76,1.79,1.79,0,0,0,1.76,1.76Z"/><path class="cls-1" d="M32.93,22.92a3.53,3.53,0,0,0,2.54.39,3.75,3.75,0,0,0,1.61-1,2.86,2.86,0,0,0,0-4,3.75,3.75,0,0,0-1.61-1,3.53,3.53,0,0,0-2.54.39c-1.95.86-1.95,4.27,0,5.13Z"/><path class="cls-1" d="M40.11,12.47a1.69,1.69,0,1,0-1.68-1.68,1.7,1.7,0,0,0,1.68,1.68Z"/><path class="cls-1" d="M27.19,60.53a3,3,0,0,0,1.19.45c.43.06.4.06-.07,0a4.31,4.31,0,0,0,.71.09,2.24,2.24,0,0,0,1.92-3.34,2.67,2.67,0,0,0-3-1.19,2.27,2.27,0,0,0-1.58,1.58,2.5,2.5,0,0,1-.05.29,2,2,0,0,0,.86,2.12Z"/><path class="cls-1" d="M39,70l.2,0c1.47-.21,1.47-2.77,0-3L39,67a1.58,1.58,0,1,0,0,3Z"/><path class="cls-1" d="M39.51,60.59a1.07,1.07,0,0,0,0-2.13,1.07,1.07,0,0,0,0,2.13Z"/><path class="cls-1" d="M23.4,72.73l.29-.32a1.57,1.57,0,0,0,.32-1.7,1.53,1.53,0,0,0-1.42-1l-.4,0a1.71,1.71,0,1,0,1.21,2.93Z"/><path class="cls-1" d="M16,56.3a1.52,1.52,0,0,0-.57-1.81,1.43,1.43,0,0,0-1.82.42A1.43,1.43,0,1,0,16,56.3Z"/><path class="cls-1" d="M19.07,25.67c-.08.23-.15.45-.23.67-.52,1.58,2,2.25,2.49.69l.22-.67c.53-1.58-2-2.25-2.48-.69Z"/><path class="cls-1" d="M22.47,16.09h.15a1.43,1.43,0,0,0,1.43-1.43,1.45,1.45,0,0,0-1.43-1.43l-.15,0a1.42,1.42,0,0,0,0,2.83Z"/><path class="cls-1" d="M8.42,24.63a2.2,2.2,0,0,0,.72-.1,1.24,1.24,0,0,0,0-2.37,2.2,2.2,0,0,0-.72-.1,1.29,1.29,0,0,0,0,2.57Z"/><path class="cls-1" d="M3.05,39.78c.44.45,1,.86,1.64.49s.55-1.08.45-1.71a1.25,1.25,0,0,0-1.84-.75,1.27,1.27,0,0,0-.25,2Z"/><path class="cls-1" d="M67,58.62a2.26,2.26,0,0,0,.45,0A1.32,1.32,0,0,0,68.61,58c.22-.5.14-.28-.12-1s-.22-.71-.72-1.08A1.49,1.49,0,1,0,67,58.62Z"/><path class="cls-1" d="M71.87,67.83,72,68a2,2,0,0,0,2.84-2.84L74.72,65a2,2,0,0,0-2.85,0,2,2,0,0,0,0,2.86Z"/><path class="cls-1" d="M58.65,76a3.57,3.57,0,0,0,.86-.12,1.75,1.75,0,0,0,0-3.35,3.13,3.13,0,0,0-.86-.12,1.8,1.8,0,1,0,0,3.59Z"/><path class="cls-1" d="M75.88,78.73l.17-.12a2.2,2.2,0,1,0-3-3l-.11.17c-1.21,1.76,1.19,4.16,2.95,3Z"/><path class="cls-1" d="M92.23,62.73a3.63,3.63,0,0,0,.09-.8A2,2,0,0,0,90.87,60a2,2,0,0,0-2.22.9,2.3,2.3,0,0,0,0,2.27c.77,1.4,3.25,1.2,3.57-.47Z"/><path class="cls-1" d="M89.74,74.73a2.65,2.65,0,1,0-2.65-2.65,2.69,2.69,0,0,0,2.65,2.65Z"/><path class="cls-1" d="M76.4,56.53a1.31,1.31,0,1,0,2.5.8,1.31,1.31,0,0,0-2.5-.8Z"/><path class="cls-1" d="M82.59,67.61l.08-.07a.77.77,0,0,0,0-1.09l-.08-.07a.88.88,0,1,0,0,1.23Z"/><path class="cls-1" d="M81,19H81a1.81,1.81,0,0,0,1.72-2.26c.19.84-.16-.48-.22-.61a1.62,1.62,0,0,0-2.78,0l.15-.19,1.65-.43a1.88,1.88,0,0,0-1.5.23,1.82,1.82,0,0,0-.8,2A1.79,1.79,0,0,0,81,19Z"/><path class="cls-1" d="M79.87,4.9a1,1,0,0,0,0-2,1,1,0,0,0,0,2Z"/><path class="cls-1" d="M64,2.42v.15a.6.6,0,0,0,1.19,0V2.42c.06-.78-1.27-.78-1.21,0Z"/><path class="cls-1" d="M72.82,7.86c.56-1.45-1.73-2.36-2.5-1.05a1.37,1.37,0,1,0,2.5,1.05Z"/><path class="cls-1" d="M49.77.94,49.65.88A1.45,1.45,0,0,0,47.5,2.12a1.45,1.45,0,0,0,2.15,1.23l.12-.05a1.38,1.38,0,0,0,0-2.36Z"/><path class="cls-1" d="M59.34,10.26l.11-.06a.71.71,0,0,0,0-1.22l-.11-.06a.78.78,0,1,0,0,1.34Z"/><path class="cls-1" d="M90.63,10.19a2.58,2.58,0,0,0,.64,1.69,2,2,0,0,0,2.92,0,2.58,2.58,0,0,0,.64-1.69,2.11,2.11,0,0,0-2.1-2.1c-1,.05-2.24.93-2.1,2.1Z"/><path class="cls-1" d="M103.28,21.44a1.77,1.77,0,0,0,1.65.19,1.65,1.65,0,0,0,0-3.15,1.77,1.77,0,0,0-1.65.19,1.63,1.63,0,0,0,0,2.77Z"/><path class="cls-1" d="M116,13.52l.11,0A3,3,0,0,0,118.33,11a3,3,0,0,0-1.46-3l-.1,0a3.2,3.2,0,0,0-3.13,0,3,3,0,0,0-1.48,2.26,3.11,3.11,0,0,0,3.87,3.4Z"/><path class="cls-1" d="M120.06,28.29l.1-.08a2.55,2.55,0,0,0,0-4.35l-.1-.07c-1.66-1.17-3.92.4-3.92,2.25s2.26,3.41,3.92,2.25Z"/><path class="cls-1" d="M130.1,21.8h.15a1.63,1.63,0,0,0,1.6-1.59v-.15a1.75,1.75,0,1,0-1.75,1.74Z"/><path class="cls-1" d="M140,43.19a1.91,1.91,0,0,0,0-3.81,1.91,1.91,0,0,0,0,3.81Z"/><path class="cls-1" d="M141.17,49.3a.84.84,0,0,0,0-1.68.84.84,0,0,0,0,1.68Z"/><path class="cls-1" d="M107.14,56.1a2.83,2.83,0,0,0,1.84-.22,1.82,1.82,0,0,0,.82-2,2.33,2.33,0,0,0-.68-1.16,2.07,2.07,0,0,0-3.2.41c-.6,1-.11,2.81,1.22,3Z"/><path class="cls-1" d="M114.26,66.07a2.08,2.08,0,0,0,1.23-.35,1.67,1.67,0,0,0,0-2.83,2.08,2.08,0,0,0-1.23-.35,1.77,1.77,0,1,0,0,3.53Z"/><path class="cls-1" d="M97.35,57.73l0-.13-.18.64.06-.12a1.24,1.24,0,0,0-1.69-1.69,1.69,1.69,0,0,0-.49.35,1.33,1.33,0,1,0,2.28.95Z"/><path class="cls-1" d="M99,68.79a1.7,1.7,0,0,0,.88,1.55,1.34,1.34,0,0,0,1.94-.79,2.5,2.5,0,0,0,.05-.29c0-.22,0-.25,0-.08a1.47,1.47,0,1,0-2.9-.39Z"/><path class="cls-1" d="M103.2,63.79a1.58,1.58,0,0,0,0-3.15,1.58,1.58,0,0,0,0,3.15Z"/><path class="cls-1" d="M119.63,51.88a1.76,1.76,0,0,0-1.35.55,1.7,1.7,0,0,0-.46,1.72l0,.07a1.82,1.82,0,0,0,1.68,1.28,1.79,1.79,0,0,0,1.68-1.28,2,2,0,0,0,.09-.61c-.28.51-.57,1-.86,1.51l.06,0a1.72,1.72,0,0,0-.87-3.2Z"/><path class="cls-1" d="M116.52,49a1.72,1.72,0,0,0,0-3.43,1.78,1.78,0,1,0,0,3.43Z"/><path class="cls-1" d="M125.49,59.57l.05.06a2.06,2.06,0,0,0,2.26.92,2,2,0,1,0-2.26-2.93l-.05.06a1.83,1.83,0,0,0,0,1.89Z"/><path class="cls-1" d="M107.46,71.18a2.1,2.1,0,1,0-2.09-2.09,2.12,2.12,0,0,0,2.09,2.09Z"/><path class="cls-1" d="M121.45,69.77a3.88,3.88,0,1,0-3.87-3.88,3.93,3.93,0,0,0,3.87,3.88Z"/><path class="cls-1" d="M43.1,76.9a4.19,4.19,0,0,0,4.34,1,4.39,4.39,0,0,0,2-1.37,3.59,3.59,0,0,0,.82-2.31,4.58,4.58,0,0,0-.52-1.92,4.26,4.26,0,0,0-6.62-.7,3.77,3.77,0,0,0,0,5.25Z"/><path class="cls-1" d="M19.78,68.14a3.31,3.31,0,1,0-3.3-3.3,3.34,3.34,0,0,0,3.3,3.3Z"/><path class="cls-1" d="M82.84,12.46l.08-.06a3.1,3.1,0,0,0,0-4.33L82.84,8a3.18,3.18,0,0,0-5.39,2.23A3.31,3.31,0,0,0,79,13a3.22,3.22,0,0,0,3.82-.5Z"/><path class="cls-1" d="M101.9,13.25a3.9,3.9,0,0,0,3.86-3.86,3.86,3.86,0,0,0-7.72,0,3.93,3.93,0,0,0,3.86,3.86Z"/><path class="cls-1" d="M89.34,22.78A3.32,3.32,0,1,0,86,19.46a3.36,3.36,0,0,0,3.32,3.32Z"/><path class="cls-1" d="M48.78,11.15a2.36,2.36,0,1,0-2.36-2.36,2.38,2.38,0,0,0,2.36,2.36Z"/><path class="cls-1" d="M30.42,9.48a2.46,2.46,0,0,0,2.24,0,1.84,1.84,0,0,0,0-3.16,2.4,2.4,0,0,0-2.24,0,1.84,1.84,0,0,0,0,3.16Z"/><path class="cls-1" d="M27.81,17.66h.1a2.18,2.18,0,1,0-2.11-2.76l0,.1a2.14,2.14,0,0,0,2,2.65Z"/><path class="cls-1" d="M18.89,22.15a1.59,1.59,0,0,0,0-3.18,1.59,1.59,0,0,0,0,3.18Z"/><path class="cls-1" d="M26.36,25.63a1.19,1.19,0,0,0,0-2.38,1.19,1.19,0,0,0,0,2.38Z"/><path class="cls-1" d="M11.91,30.36a1.43,1.43,0,0,0,0-2.86,1.43,1.43,0,0,0,0,2.86Z"/><path class="cls-1" d="M8.62,44a1.19,1.19,0,0,0,0-2.38,1.19,1.19,0,0,0,0,2.38Z"/><path class="cls-1" d="M2.9,54.05l.05.19a1.13,1.13,0,0,0,2.17,0l0-.19a1.18,1.18,0,1,0-2.27,0Z"/><path class="cls-1" d="M20.14,54.45l.17,0c2.12-.47,2.49-3.37.89-4.61a2.59,2.59,0,0,0-2.61-.34A2.71,2.71,0,0,0,17,51.88L17,52c-.16,1.71,1.73,2.73,3.18,2.41Z"/><path class="cls-1" d="M8.42,61.49a1,1,0,0,0,0-1.94,1,1,0,0,0,0,1.94Z"/><path class="cls-1" d="M10.33,48.58l-.08,0,.71.55L10.91,49c-.72-1.05-2.58-.43-2.16.91a1.53,1.53,0,0,0,.65.86,1.21,1.21,0,1,0,.93-2.21Z"/><path class="cls-1" d="M.84,48.83a.87.87,0,0,0,0-1.74.87.87,0,0,0,0,1.74Z"/><path class="cls-1" d="M2.86,31a1.07,1.07,0,0,0,.39,1,.87.87,0,0,0,1.17,0,1,1,0,0,0,.38-1,1,1,0,0,0-1.94,0Z"/><path class="cls-1" d="M111.48,18.81A2,2,0,0,0,110,20.26a1.77,1.77,0,0,0,.81,2,1.73,1.73,0,0,0,2.08-.2,2,2,0,0,0,.51-.85,1.83,1.83,0,0,0,0-.93c-.07-.3-.09-.15-.05.42a1.54,1.54,0,0,0-1.87-1.87Z"/><path class="cls-1" d="M109.08,29.21a1.78,1.78,0,1,0-1.78-1.78,1.81,1.81,0,0,0,1.78,1.78Z"/><path class="cls-1" d="M127,28.11a1.88,1.88,0,0,0,0-3.75,1.88,1.88,0,0,0,0,3.75Z"/><path class="cls-1" d="M121.83,20a1.1,1.1,0,0,0,0-2.2,1.1,1.1,0,0,0,0,2.2Z"/><path class="cls-1" d="M127,16a1.32,1.32,0,0,0,0-2.63A1.32,1.32,0,0,0,127,16Z"/><path class="cls-1" d="M137.18,24.72a1.08,1.08,0,0,0,0-2.16,1.08,1.08,0,0,0,0,2.16Z"/><path class="cls-1" d="M143.35,36.41l.2,0c1.2.13,1.62-1.47.92-2.23l-.14-.15a1.38,1.38,0,0,0-2.24.44,1.39,1.39,0,0,0,1.26,1.92Z"/><path class="cls-1" d="M146,49.33a1.77,1.77,0,1,0-1.76-1.77A1.79,1.79,0,0,0,146,49.33Z"/><path class="cls-1" d="M137.35,64.72l.09,0c2.23-.49,2.25-4.06,0-4.53l-.09,0a2.37,2.37,0,1,0,0,4.57Z"/><path class="cls-1" d="M128.35,72.82l0,.08v-.74l0,.08a1.48,1.48,0,1,0,1.44-1.1,1.37,1.37,0,0,0-.53.08,1.34,1.34,0,0,0-.91,1.6Z"/><path class="cls-1" d="M113.66,77.17a.51.51,0,0,0,0-1,.51.51,0,0,0,0,1Z"/><path class="cls-1" d="M101.5,79.13h.1A1.18,1.18,0,0,0,102.78,78v-.1a1.27,1.27,0,1,0-1.27,1.27Z"/><path class="cls-1" d="M90.54,83.84a1,1,0,0,0,0-2,1,1,0,0,0,0,2Z"/><path class="cls-1" d="M63.23,67.63a.94.94,0,0,0,0-1.87.94.94,0,0,0,0,1.87Z"/><path class="cls-1" d="M66.42,75a1.72,1.72,0,1,0-1.72-1.72A1.75,1.75,0,0,0,66.42,75Z"/><path class="cls-1" d="M30.59,69.18l.18-.05a.88.88,0,0,0,0-1.68l-.18,0c-1.48-.4-1.49,2.19,0,1.78Z"/><path class="cls-1" d="M32.8,76.34a2,2,0,0,0,.77-.33A1.66,1.66,0,0,0,32.74,73a1.9,1.9,0,0,0-.85.11,1.7,1.7,0,1,0,.91,3.28Z"/><path class="cls-1" d="M37.32,78.87a1.21,1.21,0,0,0,0-2.42,1.21,1.21,0,0,0,0,2.42Z"/><path class="cls-1" d="M51.85,83.72l.09-.2a1.36,1.36,0,0,0-.48-1.81,1.34,1.34,0,0,0-1.81.47l-.11.2A1.35,1.35,0,0,0,50,84.2a1.34,1.34,0,0,0,1.83-.48Z"/><path class="cls-1" d="M61.85,82.63a1.47,1.47,0,0,0-2.67-1.12,1.46,1.46,0,1,0,2.67,1.12Z"/><path class="cls-1" d="M68.41,84.15a1.51,1.51,0,0,0,0-3,1.51,1.51,0,0,0,0,3Z"/><path class="cls-1" d="M78.35,85.81l.09-.08-.87.5.1,0a2,2,0,1,0-2.27-3,1.87,1.87,0,0,0-.29.68,2,2,0,0,0,.9,2.19,2,2,0,0,0,2.34-.3Z"/><path class="cls-1" d="M82.35,82.28a1.41,1.41,0,0,0,1.51-1,1.51,1.51,0,0,0-.81-1.63,1.39,1.39,0,0,0-2,.83,1.42,1.42,0,0,0,1.33,1.75Z"/><path class="cls-1" d="M80.87,76l.11.09c.45.33,1.12-.34.78-.78l-.08-.11a.58.58,0,1,0-.81.8Z"/><path class="cls-1" d="M94.33,53.72a.78.78,0,0,0,0-1.55.78.78,0,0,0,0,1.55Z"/><path class="cls-1" d="M101.1,52.16a1.21,1.21,0,0,0,0-2.42,1.21,1.21,0,0,0,0,2.42Z"/><path class="cls-1" d="M102.5,56.31a1,1,0,0,0,0-1.94,1,1,0,0,0,0,1.94Z"/><path class="cls-1" d="M81.57,62.74l.4,0a1.65,1.65,0,0,0,1.59-1.59A1.62,1.62,0,0,0,82,59.53a2.69,2.69,0,0,0-.4,0,1.62,1.62,0,1,0,0,3.24Z"/><path class="cls-1" d="M72,61a1.06,1.06,0,0,0,0-2.12A1.06,1.06,0,0,0,72,61Z"/><path class="cls-1" d="M59.22,59a.65.65,0,0,0,0-1.25c-1.08-.3-1,1.61,0,1.25Z"/><path class="cls-1" d="M34.23,57a1.38,1.38,0,0,0,0-2.75,1.38,1.38,0,0,0,0,2.75Z"/><path class="cls-1" d="M21.36,59.13a1.25,1.25,0,0,0,.35-.21c.82-.54.59-2-.53-2-.24,0-.47,0-.7.09a1.14,1.14,0,1,0,.88,2.09Z"/><path class="cls-1" d="M6.79,35.8a1.52,1.52,0,0,0,.22.75,1.11,1.11,0,1,0,1.26-1.64l-.11,0,.48.28-.09-.08c-.59-.51-1.89-.24-1.76.73Z"/><path class="cls-1" d="M42.7,17.73a.86.86,0,0,0,0-1.72.86.86,0,0,0,0,1.72Z"/><path class="cls-1" d="M47.09,16.51h.2a1.24,1.24,0,0,0,0-2.48h-.2a1.24,1.24,0,0,0,0,2.48Z"/><path class="cls-1" d="M34.24,15.49a1.51,1.51,0,0,0,0-3,1.51,1.51,0,0,0,0,3Z"/><path class="cls-1" d="M41.64,6.16a1,1,0,0,0-1.77-.74c-.7,1.19,1.35,2.12,1.77.74Z"/><path class="cls-1" d="M72.6,16.58a1.31,1.31,0,0,0,0-2.61,1.31,1.31,0,0,0,0,2.61Z"/><path class="cls-1" d="M74,23a1.56,1.56,0,0,0,0-3.12A1.56,1.56,0,0,0,74,23Z"/><path class="cls-1" d="M81.14,22.25a1.23,1.23,0,0,0,.34.88.7.7,0,0,0,1,0,1.15,1.15,0,0,0,.34-.88.83.83,0,0,0-1.65,0Z"/><path class="cls-1" d="M86.1,12.87l.11.08c.7.51,1.72-.51,1.21-1.21l-.09-.11a.89.89,0,1,0-1.23,1.24Z"/><path class="cls-1" d="M56.85,5a1.13,1.13,0,0,0,0-2.26,1.13,1.13,0,0,0,0,2.26Z"/><path class="cls-1" d="M64.49,8a.62.62,0,0,0,1,.75c.65-.64-.53-1.54-1-.75Z"/><path class="cls-1" d="M87.35,5.39a1.48,1.48,0,0,0,0-3,1.48,1.48,0,0,0,0,3Z"/><path class="cls-1" d="M70.86,2.58a1.31,1.31,0,0,0,1-2.39C70.25-.75,69,2,70.86,2.58Z"/><path class="cls-1" d="M99.19,16.35a1.41,1.41,0,0,0-1.64-.81,1.39,1.39,0,0,0-.82,2c.83,1.42,3.15.28,2.46-1.21Z"/><path class="cls-1" d="M101.9,25.16a.92.92,0,0,0,0-1.84.92.92,0,0,0,0,1.84Z"/><path class="cls-1" d="M108.48,16.11a1.24,1.24,0,0,0,0-2.48,1.24,1.24,0,0,0,0,2.48Z"/><path class="cls-1" d="M116.85,19.72a1.66,1.66,0,1,0-1.65-1.66,1.68,1.68,0,0,0,1.65,1.66Z"/><path class="cls-1" d="M114.66,30.79a1,1,0,0,0,0-1.94,1,1,0,0,0,0,1.94Z"/><path class="cls-1" d="M121.43,34.28a1.07,1.07,0,0,0,0-2.13,1.07,1.07,0,0,0,0,2.13Z"/><path class="cls-1" d="M134.67,14.77l0,.05a1.2,1.2,0,1,0,1.77.72,1.28,1.28,0,0,1-.07-.34c-.12-.78-1.16-.88-1.65-.43Z"/><path class="cls-1" d="M146.61,38.73l0,.13A.9.9,0,0,0,147.68,40l.12,0a1,1,0,1,0-1.19-1.2Z"/><path class="cls-1" d="M142,57.27a1.34,1.34,0,0,0,0-2.67,1.34,1.34,0,0,0,0,2.67Z"/><path class="cls-1" d="M119.34,79.4a1.24,1.24,0,0,0,0-2.48,1.24,1.24,0,0,0,0,2.48Z"/><path class="cls-1" d="M106.48,84.26a1,1,0,0,0,0-2,1,1,0,0,0,0,2Z"/><path class="cls-1" d="M106.88,78.21a1.15,1.15,0,0,0,0-2.29,1.15,1.15,0,0,0,0,2.29Z"/><path class="cls-1" d="M94.92,80.23a1.58,1.58,0,0,0,0-3.15,1.58,1.58,0,0,0,0,3.15Z"/><path class="cls-1" d="M98,83.67l.07,0a1.19,1.19,0,1,0-.83-.83l0,.07a1,1,0,0,0,.74.74Z"/><path class="cls-1" d="M96.92,73.62a.54.54,0,0,0,0-1.08.54.54,0,0,0,0,1.08Z"/><path class="cls-1" d="M79.4,71.34c.59-1.42-1.84-2.18-2.25-.67s1.7,2,2.25.67Z"/><path class="cls-1" d="M56.25,69.59l.19,0a.69.69,0,0,0,0-1.32l-.19,0c-1.18-.27-1.18,1.7,0,1.41Z"/><path class="cls-1" d="M64.63,63.18a.67.67,0,0,0,0-1.34.67.67,0,0,0,0,1.34Z"/><path class="cls-1" d="M42.6,66.31a1.31,1.31,0,0,0,0-2.62,1.31,1.31,0,0,0,0,2.62Z"/><path class="cls-1" d="M34.44,64.33a2.18,2.18,0,0,0,.67.1,1,1,0,0,0,.48-1.76,2.47,2.47,0,0,0-.61-.3c-1.2-.46-1.82,1.6-.54,2Z"/><path class="cls-1" d="M13.07,48.16v.12l.15-.58,0-.06a1.2,1.2,0,1,0,1.89,1.46,1.58,1.58,0,0,0,.14-1.24,1.13,1.13,0,0,0-2.21.3Z"/><path class="cls-1" d="M8,57.08a1.15,1.15,0,0,0,0-2.29,1.15,1.15,0,0,0,0,2.29Z"/><path class="cls-1" d="M12.6,63.47a1.16,1.16,0,0,0,0-2.32,1.16,1.16,0,0,0,0,2.32Z"/><path class="cls-1" d="M132.6,26.7a1.07,1.07,0,0,0,0-2.13,1.07,1.07,0,0,0,0,2.13Z"/><path class="cls-1" d="M121,13h.1a.66.66,0,0,0,.66-.65v-.1A.75.75,0,1,0,121,13Z"/><path class="cls-1" d="M95.22,3.9l.3.05a.24.24,0,0,0,.24-.24,2.68,2.68,0,0,0-.05-.3c-.23-.82-1.31.26-.49.49Z"/><path class="cls-1" d="M106.38,2.52l0,.19a.76.76,0,1,0,1.49,0l0-.19a.74.74,0,0,0-1.41,0Z"/><path class="cls-2" d="M34.06,48.8c.08-.48.32-.69.72-.62a2.19,2.19,0,0,1,.76.33,2.51,2.51,0,0,0,.82.33,1.14,1.14,0,0,0,.85-.33,3.21,3.21,0,0,0,.83-1A7.67,7.67,0,0,0,38.92,45a8.18,8.18,0,0,0,0-2.47A15.92,15.92,0,0,0,38.33,40c-.26-.81-.52-1.62-.79-2.43A10.91,10.91,0,0,1,37,32.47a4.19,4.19,0,0,1,1.83-3.08A2.45,2.45,0,0,1,40.57,29a1.86,1.86,0,0,1,.9.42,1.46,1.46,0,0,1,.53.8l-.55.5a1.89,1.89,0,0,1-1-.42,1.29,1.29,0,0,0-.93.33,2.86,2.86,0,0,0-1,1.8,8.57,8.57,0,0,0-.06,2.26,10.22,10.22,0,0,0,.42,2c.2.61.41,1.27.64,2s.45,1.4.64,2.06a10.63,10.63,0,0,1,.29,4.74,6.72,6.72,0,0,1-1.4,3.19,3.63,3.63,0,0,1-1.35,1.07A3,3,0,0,1,36,50a3.54,3.54,0,0,1-1.48-.53C34.18,49.26,34,49,34.06,48.8Z"/><path class="cls-2" d="M47.72,40.61l-.64-.09a.66.66,0,0,0-.54.14l-.77,7.93,1.44.06c1,.09,1.44.37,1.4.82v.09a1.19,1.19,0,0,1-.66.48,2.38,2.38,0,0,1-.77.14,7.46,7.46,0,0,1-.84-.06l-.8-.08c-.64-.06-1-.22-1.15-.49a1,1,0,0,1-.05-.47l1.45-14.92a7.18,7.18,0,0,0-.05-1.32,7.39,7.39,0,0,1,0-1.34v-.09a4.61,4.61,0,0,1,.73-.83l1.92,0a1.56,1.56,0,0,1,.76.31.69.69,0,0,1,.34.65c0,.51-.46.73-1.24.65l-.74-.1h-.27L47,36.29c0,.34-.11.84-.21,1.49s-.18,1.13-.21,1.43l.39-.05a3.35,3.35,0,0,1,.83-.06.79.79,0,0,1,.51.26.69.69,0,0,1,.18.54.87.87,0,0,1-.24.52A.58.58,0,0,1,47.72,40.61Z"/><path class="cls-2" d="M58.43,50.13c-.52,0-.78-.24-.77-.68l.09-3.37a3.74,3.74,0,0,0-1.31-.46,12.57,12.57,0,0,0-1.68-.27,3.94,3.94,0,0,0-.47,1.29c-.13.57-.27,1.14-.4,1.72a4.55,4.55,0,0,1-.52,1.36c-.68,0-1-.2-1.12-.55a25.36,25.36,0,0,0,1.28-5.12q.91-4.62,1.5-7.23a36,36,0,0,1,1.22-4.39c.42-1.18.82-1.77,1.18-1.76a1.27,1.27,0,0,1,.82.25c0,.61.11,2.28.37,5s.39,4.47.37,5.26,0,2.11.16,4,.19,3.23.16,4.16A.75.75,0,0,1,58.43,50.13Zm-.85-8.44c-.11-1.53-.21-3-.3-4.37s-.12-2.22-.11-2.51,0-.46,0-.5q-.4.4-1.29,4.59T55,44.21a7,7,0,0,0,1.79.33,4.13,4.13,0,0,0,1,0C57.75,44.15,57.69,43.21,57.58,41.69Z"/><path class="cls-2" d="M65.19,48.82l-.06.17a1.3,1.3,0,0,1,.07.39.59.59,0,0,1-.22.46,1,1,0,0,1-.62.22q-.75,0-.81-1.62-.09-2.44-.62-9.27t-.8-7.2c0-.89.56-1.39,1.77-1.49l.74-.05a1.35,1.35,0,0,1,.75.15.79.79,0,0,1,.3.71c0,.36-.22.55-.69.57h-.63c-.48,0-.72.12-.71.31,0,.8.14,2,.32,3.5s.3,2.67.34,3.41a3.87,3.87,0,0,0,.44-.12,4.44,4.44,0,0,1,1-.21.67.67,0,0,1,.53.22.88.88,0,0,1,.23.55c0,.56-.68.87-2.11.92,0,.93.17,2.33.41,4.18S65.15,47.88,65.19,48.82Z"/><path class="cls-2" d="M76,41.35l.09,3.28v.11a6.75,6.75,0,0,0,0,1.56A4.65,4.65,0,0,1,76,47.92a3.77,3.77,0,0,1-.74,1.45A1.83,1.83,0,0,1,74,50.1a2,2,0,0,1-1.32-.36,3.63,3.63,0,0,1-1.07-1.13,9.73,9.73,0,0,1-.84-1.71,18.17,18.17,0,0,1-.64-2c-.17-.64-.32-1.33-.46-2.05-.21-1.1-.34-2-.4-2.57s-.11-1.14-.16-1.58-.1-.83-.14-1.18c0-.18,0-.37-.06-.59s0-.44-.06-.68c0-.49-.07-.94-.09-1.33s0-.83,0-1.29a10.36,10.36,0,0,1,.09-1.22,6.5,6.5,0,0,1,.24-1.06,3.61,3.61,0,0,1,.42-.88,1.86,1.86,0,0,1,1.37-.87,2.94,2.94,0,0,1,1.42.16,2.46,2.46,0,0,1,1.07.85q.45.61.81,1.2a6.35,6.35,0,0,1,.63,1.66l.44,1.75c.11.46.22,1.11.33,2,.15,1.14.25,2,.31,2.67Zm-3.19-9.17a2.76,2.76,0,0,0-.74-.95,1.14,1.14,0,0,0-.8-.29.79.79,0,0,0-.59.33,2,2,0,0,0-.34.78,10.21,10.21,0,0,0-.2,1.07,8.25,8.25,0,0,0-.08,1.29c0,.48,0,.92,0,1.32s0,.82.06,1.29c.06.77.11,1.38.14,1.82V39a29.16,29.16,0,0,0,.62,3.68c.31,1.31.6,2.37.87,3.2a8.22,8.22,0,0,0,1,2.08c.37.55.75.82,1.15.78s.6-.39.77-1a10.74,10.74,0,0,0,.27-2.46c0-1.72,0-2.93-.1-3.62s-.11-1.19-.14-1.51l-.18-1.38c-.08-.6-.17-1.17-.27-1.69s-.22-1.11-.36-1.75a14.38,14.38,0,0,0-.49-1.68A11.51,11.51,0,0,0,72.82,32.18Z"/><path class="cls-2" d="M86.44,40.18l.27,3.14,0,.11a7,7,0,0,0,.07,1.5,4.36,4.36,0,0,1,0,1.57,3.67,3.67,0,0,1-.64,1.44,1.73,1.73,0,0,1-1.15.77,1.88,1.88,0,0,1-1.29-.27,3.65,3.65,0,0,1-1.1-1,10.27,10.27,0,0,1-.9-1.61A16.76,16.76,0,0,1,81,43.94c-.19-.61-.38-1.26-.55-1.94-.26-1-.44-1.87-.53-2.46s-.17-1.09-.24-1.51-.14-.79-.2-1.13c0-.17-.06-.35-.09-.56s-.06-.42-.1-.65c-.07-.47-.12-.9-.16-1.28S79,33.62,79,33.18A9.11,9.11,0,0,1,79,32a6,6,0,0,1,.17-1,3.29,3.29,0,0,1,.35-.88,1.79,1.79,0,0,1,1.27-.91,2.85,2.85,0,0,1,1.38.07,2.34,2.34,0,0,1,1.07.76,13.16,13.16,0,0,1,.85,1.11,6,6,0,0,1,.7,1.57c.22.68.39,1.23.52,1.65a15.47,15.47,0,0,1,.43,1.87c.2,1.09.35,1.94.45,2.56Zm-3.58-8.65a2.56,2.56,0,0,0-.77-.87,1,1,0,0,0-.78-.23.75.75,0,0,0-.55.34,2,2,0,0,0-.28.78,10.26,10.26,0,0,0-.14,1,8.66,8.66,0,0,0,0,1.25c0,.47.06.89.08,1.27s.08.78.13,1.23c.11.75.18,1.33.24,1.75l0,.11a28.29,28.29,0,0,0,.8,3.5c.37,1.24.71,2.25,1,3a8.57,8.57,0,0,0,1,1.94c.39.52.78.74,1.15.69s.56-.41.69-1.06a10.88,10.88,0,0,0,.12-2.38c-.1-1.65-.2-2.81-.3-3.47s-.17-1.14-.22-1.45-.14-.74-.25-1.32-.23-1.11-.35-1.61-.28-1.06-.45-1.66a12.32,12.32,0,0,0-1.2-2.88Z"/><path class="cls-2" d="M95.53,36.72l.15.45A10.19,10.19,0,0,1,95.6,41a8,8,0,0,1-1.53,3.87,2.49,2.49,0,0,1-1.38.9,1.58,1.58,0,0,1-.78,0,.61.61,0,0,1-.45-.49,4.32,4.32,0,0,0,0-2.68c-.17-.82-.48-2-.94-3.6s-.78-2.77-.94-3.57L89.11,33a6.74,6.74,0,0,0-.56-1.51A6.78,6.78,0,0,1,88,30.13c-.1-.51.4-.87,1.53-1.1l.33-.07c1.49-.3,2.74.31,3.76,1.85a13.47,13.47,0,0,1,1.69,4.67l.2,1A.55.55,0,0,0,95.53,36.72ZM92.46,42.3l.43,2.1A5,5,0,0,0,94,42.61a7.88,7.88,0,0,0,.51-2.28,16.59,16.59,0,0,0-.29-4.47,10.33,10.33,0,0,0-1.42-3.79,3.68,3.68,0,0,0-2-1.63,2.75,2.75,0,0,0-1.37,0v0q.41,2,1.48,5.92C91.69,39,92.19,41,92.46,42.3Z"/><path class="cls-2" d="M29.51,32.29a.89.89,0,1,1-.89-.9A.89.89,0,0,1,29.51,32.29Z"/><path class="cls-2" d="M58.17,23.06c1.34-1.19,2.59-2.48,4-3.64a34.43,34.43,0,0,0,4.14-3.35c.17-.2.07-.6-.24-.58-3.62.33-7.07,4.11-8.22,7.37-.07.21.2.33.35.2Z"/><path class="cls-2" d="M64,23a12.23,12.23,0,0,1,1.53-1.15c.5-.35,1-.6,1.19-1.19a.4.4,0,0,0-.27-.48c-1.37-.44-2.57,1.3-3.12,2.31A.43.43,0,0,0,64,23Z"/><path class="cls-2" d="M51.26,61.47c1,1.19,2.52,2.67,4.2,2.64a.38.38,0,0,0,.27-.64,8.3,8.3,0,0,0-1.81-1.24A10.27,10.27,0,0,1,52,60.73c-.49-.48-1.18.23-.75.74Z"/><path class="cls-2" d="M93,26.57c.79-.21,1.68-.35,2.13-1.1A.36.36,0,0,0,95,25c-1-.31-1.74.46-2.27,1.17-.17.22.11.51.35.45Z"/><path class="cls-2" d="M96.2,27.72A3.66,3.66,0,0,0,98,26.55a.64.64,0,0,0-.71-.92,2.43,2.43,0,0,0-1.54,1.51c-.12.27.09.72.45.58Z"/><path class="cls-2" d="M98.8,29.13c.41-.31,1.69-1.1,1.09-1.74a.77.77,0,0,0-1,.05,2,2,0,0,0-.77,1.14c-.12.38.36.8.7.55Z"/><path class="cls-2" d="M85.22,51.69a3.61,3.61,0,0,0,1,1.1.22.22,0,0,0,.32-.25,3.69,3.69,0,0,0-.8-1.27c-.25-.31-.79.1-.55.42Z"/><path class="cls-2" d="M87.58,51.1a2,2,0,0,0,.77.63c.19.07.31-.13.29-.29a2,2,0,0,0-.44-.82.39.39,0,1,0-.62.48Z"/><path class="cls-2" d="M127.12,39.11c1.26,0,2.8.52,4,0a.26.26,0,0,0,.05-.41c-1.07-.94-2.85-.49-4.11-.18a.3.3,0,0,0,.08.58Z"/><path class="cls-2" d="M127.18,36.25c1.93-.79,4-.86,6.06-1.29a.31.31,0,0,0,.08-.56c-2.27-1-4.51-.16-6.4,1.24-.28.2-.12.77.26.61Z"/><path class="cls-2" d="M131.18,32.68c1.61-.29,3.24,0,4.85-.23a.45.45,0,0,0,.1-.81c-1.65-.87-3.62-.28-5.18.5-.31.16-.08.59.23.54Z"/><path class="cls-2" d="M126,42.52c1.54,1,3.13,1.73,4.89.89a.33.33,0,0,0,0-.56,5.33,5.33,0,0,0-2-.67c-.88-.1-1.77-.14-2.64-.27a.34.34,0,0,0-.26.61Z"/><path class="cls-2" d="M127.84,46.9c1.49.92,3,1.26,4.53.24a.33.33,0,0,0-.07-.59,5.84,5.84,0,0,0-2.08-.32c-.77,0-1.51.2-2.27.29a.21.21,0,0,0-.11.38Z"/><path class="cls-2" d="M131.17,50.25c.84.63,2.31.93,3-.12a.36.36,0,0,0-.21-.52,6.93,6.93,0,0,0-2.57,0,.37.37,0,0,0-.19.68Z"/></g></g></svg>